<svg width="400" height="125" fill="none" xmlns="http://www.w3.org/2000/svg"><mask id="a" style="mask-type:alpha" maskUnits="userSpaceOnUse" x="0" y="0" width="120" height="120"><path d="M0 60C0 26.863 26.863 0 60 0s60 26.863 60 60-26.863 60-60 60S0 93.137 0 60Z" fill="#000"/></mask><g mask="url(#a)"><path d="M0 60C0 26.863 26.863 0 60 0s60 26.863 60 60-26.863 60-60 60S0 93.137 0 60Z" fill="#000"/><path fill-rule="evenodd" clip-rule="evenodd" d="M58.202 0C57.9 24.323 56.24 37.994 47.117 47.117 37.994 56.239 24.323 57.9 0 58.202v3.596c24.323.302 37.994 1.962 47.117 11.085C56.24 82.006 57.9 95.677 58.202 120h3.596c.302-24.323 1.963-37.994 11.085-47.117C82.006 63.761 95.677 62.1 120 61.798v-3.596c-24.323-.302-37.994-1.963-47.117-11.085C63.761 37.994 62.1 24.323 61.798 0h-3.596Z" fill="#fff"/></g><path d="M161.389 123.85V105h48.36v18.85h14.69V92.78h-8.45V14.65h-55.25l-1.56 44.85c-.52 14.56-2.08 26.39-6.24 33.28h-6.24v31.07h14.69Zm11.57-62.27 1.17-34.71h26.13v65.91h-32.5c2.73-6.11 4.68-16.64 5.2-31.2ZM250.835 94.08c-7.93 0-15.73-2.86-19.89-5.98v12.61c2.99 2.47 10.53 5.59 21.71 5.59 16.51 0 25.22-7.41 25.22-20.54 0-7.67-4.81-12.87-13.39-14.69 8.06-2.6 11.44-8.32 11.44-15.6 0-11.05-8.71-17.16-22.75-17.16-10.14 0-16.77 3.12-20.54 5.46v12.61c4.16-2.73 9.88-5.85 18.33-5.85 5.72 0 9.36 2.73 9.36 7.54 0 5.07-3.12 7.8-9.49 7.8h-9.75v11.7h9.75c7.93 0 11.05 2.34 11.05 8.06 0 5.2-3.77 8.45-11.05 8.45ZM336.407 100.58V87.97c-4.81 3.25-12.87 6.11-20.41 6.11-11.31 0-15.6-5.33-16.25-16.25h37.31v-8.19c0-22.75-10.01-31.33-25.48-31.33-18.85 0-27.82 14.43-27.82 34.19 0 22.75 11.18 33.8 30.94 33.8 9.88 0 17.16-2.6 21.71-5.72Zm-25.09-50.05c7.67 0 10.01 6.37 10.01 14.56v1.3h-21.58c.39-10.4 4.16-15.86 11.57-15.86ZM383.562 39.61v25.87h-20.67V39.61h-15.47V105h15.47V77.7h20.67V105h15.47V39.61h-15.47Z" fill="#000"/></svg>