<svg xmlns="http://www.w3.org/2000/svg" height="400" width="125"><g xmlns="http://www.w3.org/2000/svg" transform="rotate(90 62.5 62.5)"><defs><clipPath id="a"><path d="M220.507 683.981H51.095v-46.573h169.412v46.573z"/></clipPath></defs><g clip-path="url(#a)" transform="matrix(2.24305 0 0 -2.24305 -104.609 1544.472)"><path d="M70.171 674.268c2.993-7.595-1.887-12.47-6.748-17.353-4.524-4.989-8.509-10.175-.494-19.508-2.994 7.594 1.887 12.47 6.744 17.348 4.528 5 8.513 10.179.498 19.513" style="fill:#ef3d42;fill-opacity:1;fill-rule:nonzero;stroke:none"/><path d="M62.929 683.981c2.998-7.598-1.88-12.47-6.745-17.35-4.523-4.993-8.507-10.179-.489-19.512-2.996 7.6 1.884 12.471 6.744 17.351 4.526 4.994 8.506 10.178.49 19.511" style="fill:#00b274;fill-opacity:1;fill-rule:nonzero;stroke:none"/></g><path d="M185.928 653.902v-15.524h6.799v5.683h7.471v3.398h-7.471v3.045h14.82v-12.126h6.8v12.126h6.16v3.398h-34.579M171.34 641.747v2.691h8.866v3.401h-8.866v2.665h11.388v3.398h-18.187v-15.524h18.327v3.369H171.34" style="fill:#00b274;fill-opacity:1;fill-rule:nonzero;stroke:none" transform="matrix(2.24305 0 0 -2.24305 -104.609 1544.472)"/><path d="M99.629 653.902H80.788v-3.398h6.021v-12.126h6.799v12.126h6.021v3.398M104.777 644.26l3.146 6.009 3.011-6.009h-6.157zm8.276 9.642h-7.288l-8.486-15.524h4.419l1.395 2.665h9.529l1.391-2.665h7.53l-8.49 15.524" style="fill:#ef3d42;fill-opacity:1;fill-rule:nonzero;stroke:none" transform="matrix(2.24305 0 0 -2.24305 -104.609 1544.472)"/><path d="M156.198 653.902v-7.761l-10.874 7.761h-5.277v-15.524h4.654v8.541l11.166-8.541h4.984v15.524h-4.653" style="fill:#00b274;fill-opacity:1;fill-rule:nonzero;stroke:none" transform="matrix(2.24305 0 0 -2.24305 -104.609 1544.472)"/><path d="M137.737 653.902h-18.446v-3.398h6.02v-12.126h6.8v12.126h5.626v3.398" style="fill:#ef3d42;fill-opacity:1;fill-rule:nonzero;stroke:none" transform="matrix(2.24305 0 0 -2.24305 -104.609 1544.472)"/></g></svg>