<svg width="191" height="42" fill="none" xmlns="http://www.w3.org/2000/svg"><path d="M35.004 5.732c.19-.434.19-.434 1.236-2.987-2.52-.289-3.9-.53-6.087-.481A20.756 20.756 0 0 0 20.736 0C9.274 0 0 9.392 0 21s9.274 21 20.736 21c11.462 0 20.736-9.392 20.736-21 0-6.02-2.52-11.415-6.468-15.268Z" fill="#fff"/><path d="M33.48 8.669c-.047-.048-.095-.048-.142-.048-.048 0-.095.048-.143.048a14.075 14.075 0 0 1-2.949 2.649c-2.187 1.397-4.66 2.167-7.276 2.167-4.851 0-7.61-2.408-9.845-4.142-.048-.048-.095-.096-.095-.144 0-.049.047-.097.095-.145 3.472-2.697 6.325-4.431 9.227-5.443.095-.048.142-.096.142-.192 0-.097-.095-.145-.19-.193-.523-.048-1.046-.048-1.57-.048C10.985 3.13 3.09 11.125 3.09 20.999c0 5.443 2.378 10.307 6.183 13.583.047.048.095.048.19.048.047 0 .095-.048.143-.145l.713-2.312a.261.261 0 0 1 .238-.144c9.417 2.07 13.46-3.083 12.793-6.31-.57-2.745-4.993-5.153-11.462-1.445-.047.048-.095.048-.142 0 0 0-.048 0-.048-.048-.047-.048-.095-.096-.095-.193l2.188-11.318c0-.049.047-.097.095-.145.047-.048.143 0 .19 0 .618.385 2.473 1.59 4.47 2.794.048.048.096.096.096.192-.048.482-.333 2.264-.428 3.035 0 .048 0 .144.047.192.048.049.096.049.19.049 10.844-2.938 13.127 3.95 12.842 7.224-.666 7.466-8.799 11.416-16.028 11.512-.095 0-.19.048-.19.144 0 .097.047.193.143.193 1.76.578 3.614.915 5.517.915 9.75 0 17.644-7.995 17.644-17.87 0-4.72-1.902-9.102-4.898-12.281Z" fill="#E61801"/><path d="M16.172 9.151c5.85 4.48 14.41 2.216 17.264-4.768-5.279 2.553-11.129 4.19-17.264 4.768Z" fill="#78B617"/><path d="M16.172 9.151a48.76 48.76 0 0 0 17.264-4.768c-5.945-.674-12.128.819-17.264 4.768Z" fill="#28A62A"/><path d="M105.63 16.377c-2.236 0-3.567 1.445-4.661 3.227h-.048c0-1.83-.713-3.227-2.758-3.227-2.426 0-3.71 1.83-4.566 3.371h-.047c.142-.578.285-1.396.427-2.07a.718.718 0 0 0-.19-.627.763.763 0 0 0-.618-.289h-2.425l-2.188 12.379a.774.774 0 0 0 .142.626c.143.144.333.24.571.24h2.568l.19-1.107c1.285-7.37 3.044-9.392 4.471-9.392.999 0 1.142.963.904 2.263l-1.332 7.225c-.047.24 0 .482.19.674.143.193.38.29.619.29h2.52l.19-1.108c1.285-7.322 3.044-9.393 4.471-9.393.951 0 1.094.916.856 2.264l-1.331 7.418c-.048.192 0 .385.142.578a.76.76 0 0 0 .523.24h2.616l1.475-8.38c.142-.675.19-1.3.19-1.83-.048-2.216-1.094-3.372-2.901-3.372Zm14.553-2.794 1.141.193c.333.048.619.096.714-.434l.38-1.445c.095-.433-.047-.53-.475-.626l-1.047-.192c-.237 0-.618-.097-.713.433l-.428 1.493c-.048.337.048.53.428.578Zm-33.292 3.18h-4.994c-3.71 0-6.182 1.589-6.182 4.575 0 1.59 1.093 2.6 2.187 2.697v.048c-.428.145-.903.723-1.427 1.349-.903 1.156-1.569 1.926-2.14 1.926-.095 0-.19.097-.237.193l-.286 2.071c0 .097 0 .193.095.241a.36.36 0 0 0 .238.096h1.046c1.713 0 2.283-.674 3.948-2.793 1.284-1.734 1.76-2.264 2.568-2.264h.57l-.808 4.672c0 .096 0 .193.048.24.047.097.143.097.238.097h2.9c.143 0 .286-.096.286-.24l2.236-12.62c0-.096 0-.193-.048-.24-.048 0-.143-.049-.238-.049Zm-4.138 5.779h-1.807c-1.141 0-1.665-.385-1.665-1.156 0-1.3.81-1.975 2.379-1.975h1.712l-.619 3.13Zm-4.565-11.897C92.075 10.067 114 12.668 114 12.668a.544.544 0 0 0 .619-.337l.237-.723.38-1.204c.048-.096 0-.144-.047-.24-.047-.049-.095-.097-.19-.145-2.711-.385-22.734-2.986-37.287-2.65-13.697.338-25.207 3.083-28.298 3.902-.238.048-.428.241-.476.53l-.333 1.782c0 .097 0 .193.096.241.047.048.142.096.237.048 2.474-.578 5.945-1.156 10.511-1.734l-3.044 17.243c-.095.29-.095.627.476.627h2.949c.19 0 .428-.049.523-.53l2.853-16.665c0-.049.19-.916 1.142-1.156 1.236-.145 3.377-.241 4.66-.386l-3.186 18.11c-.095.627.19.578.428.578h3.092c.237 0 .618-.048.713-.626l2.996-17.387s.19-.916 1.142-1.108c1.522-.048 2.473-.145 3.995-.193Zm38.38 2.457 1.284.192c.333.048.619.097.761-.433l.429-1.493c.095-.482-.048-.578-.476-.675l-1.19-.144c-.237-.048-.617-.097-.76.433l-.428 1.542c-.143.289-.048.481.38.578Zm4.994 6.743c0-2.168-1.474-3.42-3.995-3.42-4.185 0-7.514 3.66-7.514 8.622 0 3.13 1.712 5.298 4.994 5.298 2.568 0 4.232-1.012 5.231-1.927l-1.38-2.36c-.808.722-1.95 1.397-3.328 1.397-1.427 0-1.998-.915-2.045-2.408 4.375-.482 8.037-1.975 8.037-5.202Zm-7.8 2.938c.476-1.927 1.57-3.66 3.234-3.66.809 0 1.237.336 1.237 1.107-.048 1.397-1.855 2.312-4.47 2.553Zm18.12-6.406c-2.282 0-3.471 1.59-4.565 3.468h-.048c.143-.482.238-.915.333-1.397.095-.434 0-.867-.285-1.204-.285-.337-.666-.53-1.094-.53h-1.665l-3.471 19.17h1.95c.856 0 1.617-.626 1.76-1.493l.76-4.287c.286.096.856.193 1.807.193 4.519 0 7.8-3.71 7.8-9.44.095-2.698-1.236-4.48-3.281-4.48Zm-4.422 11.319c-.761 0-1.142-.097-1.332-.145l.143-.722c.998-4.865 2.663-7.321 4.232-7.321.809 0 1.19.77 1.19 1.974-.096 3.854-1.95 6.214-4.233 6.214Zm59.022-11.32c-4.851 0-8.228 3.902-8.228 9.586 0 2.697 1.379 4.335 3.377 4.335 2.14 0 3.424-1.59 4.423-3.517h.047c-.142.578-.238 1.3-.333 1.975-.047.29.048.626.286.867.19.241.475.386.808.386h2.236c.046-.964.19-3.131.808-6.792l1.094-6.02c-.571-.29-2.14-.82-4.518-.82Zm.618 3.565c-.904 4.961-2.617 7.321-4.043 7.321-.808 0-1.19-.626-1.19-1.926 0-3.71 1.95-6.31 4.092-6.31.523 0 .998.096 1.236.144l-.095.771Zm-13.412 4.817c-.38-.771-.761-1.301-1.141-1.638l5.754-6.358h-3.138c-.525 0-1.048.24-1.428.674l-4.043 4.72h-.713l.761-4.334c.047-.241 0-.53-.19-.723a.903.903 0 0 0-.666-.337h-2.52l-2.284 13.246h2.521c.57 0 1.047-.434 1.142-.964l.809-4.48h.38c.76 0 1.237.82 2.044 2.602.952 2.07 1.428 2.842 3.093 2.842h1.379l.474-2.65h-.285c-.618 0-1.14-.818-1.95-2.6Zm-14.173-7.177c-.523 3.371-2.235 5.587-3.9 5.587-.857 0-1.142-.626-.904-2.071l.428-2.601c.047-.433-.048-.867-.333-1.204-.285-.337-.666-.53-1.094-.53h-1.76l-.808 4.48a10.435 10.435 0 0 0-.143 1.637c0 2.216 1.046 3.42 2.901 3.42 2.332 0 3.854-1.541 4.805-3.227h.047c-.38 2.023-.903 5.009-1.093 6.887h3.375c.048-.963.286-3.13.904-6.791l1.142-6.454h-3.471l-.096.867Zm-15.6-1.204c-4.232 0-7.42 3.805-7.42 8.38 0 3.035 1.856 5.54 5.232 5.54 4.328 0 7.325-3.613 7.325-8.381.048-3.131-1.855-5.54-5.137-5.54Zm-1.855 11.222c-1.331 0-1.997-1.156-1.997-2.89 0-2.456 1.38-5.587 3.567-5.587 1.332 0 1.997 1.012 1.997 2.842 0 2.408-1.236 5.635-3.567 5.635Z" fill="#E61801"/></svg>