<svg xmlns="http://www.w3.org/2000/svg" width="42" height="191"><g xmlns="http://www.w3.org/2000/svg"><path d="M36.268 35.004c.434.19.434.19 2.987 1.236.289-2.52.53-3.9.481-6.087A20.756 20.756 0 0 0 42 20.736C42 9.274 32.608 0 21 0S0 9.274 0 20.736c0 11.462 9.392 20.736 21 20.736 6.02 0 11.415-2.52 15.268-6.468Z" fill="#fff"/><path d="M33.331 33.48c.048-.047.048-.095.048-.142 0-.048-.048-.095-.048-.143a14.075 14.075 0 0 1-2.649-2.949c-1.397-2.187-2.167-4.66-2.167-7.276 0-4.851 2.408-7.61 4.142-9.845.048-.048.096-.095.144-.095.049 0 .097.047.145.095 2.697 3.472 4.431 6.325 5.443 9.227.048.095.096.142.192.142.097 0 .145-.095.193-.19.048-.523.048-1.046.048-1.57.048-9.75-7.947-17.644-17.821-17.644-5.443 0-10.307 2.378-13.583 6.183-.048.047-.048.095-.048.19 0 .047.048.095.145.143l2.312.713a.261.261 0 0 1 .144.238c-2.07 9.417 3.083 13.46 6.31 12.793 2.745-.57 5.153-4.993 1.445-11.462-.048-.047-.048-.095 0-.142 0 0 0-.048.048-.048.048-.047.096-.095.193-.095l11.318 2.188c.049 0 .097.047.145.095.048.047 0 .143 0 .19-.385.618-1.59 2.473-2.794 4.47-.048.048-.096.096-.192.096-.482-.048-2.264-.333-3.035-.428-.048 0-.144 0-.192.047-.049.048-.049.096-.049.19 2.938 10.844-3.95 13.127-7.224 12.842-7.466-.666-11.416-8.799-11.512-16.028 0-.095-.048-.19-.144-.19-.097 0-.193.047-.193.143-.578 1.76-.915 3.614-.915 5.517 0 9.75 7.995 17.644 17.87 17.644 4.72 0 9.102-1.902 12.281-4.898Z" fill="#E61801"/><path d="M32.849 16.172c-4.48 5.85-2.216 14.41 4.768 17.264-2.553-5.279-4.19-11.129-4.768-17.264Z" fill="#78B617"/><path d="M32.849 16.172a48.76 48.76 0 0 0 4.768 17.264c.674-5.945-.819-12.128-4.768-17.264Z" fill="#28A62A"/><path d="M25.623 105.63c0-2.236-1.445-3.567-3.227-4.661v-.048c1.83 0 3.227-.713 3.227-2.758 0-2.426-1.83-3.71-3.371-4.566v-.047c.578.142 1.396.285 2.07.427a.718.718 0 0 0 .627-.19.763.763 0 0 0 .289-.618v-2.425l-12.379-2.188a.774.774 0 0 0-.626.142.783.783 0 0 0-.24.571v2.568l1.107.19c7.37 1.285 9.392 3.044 9.392 4.471 0 .999-.963 1.142-2.263.904l-7.225-1.332a.721.721 0 0 0-.674.19.763.763 0 0 0-.29.619v2.52l1.108.19c7.322 1.285 9.393 3.044 9.393 4.471 0 .951-.916 1.094-2.264.856l-7.418-1.331c-.192-.048-.385 0-.578.142a.76.76 0 0 0-.24.523v2.616l8.38 1.475c.675.142 1.3.19 1.83.19 2.216-.048 3.372-1.094 3.372-2.901Zm2.794 14.553-.193 1.141c-.048.333-.096.619.434.714l1.445.38c.433.095.53-.047.626-.475l.192-1.047c0-.237.097-.618-.433-.713l-1.493-.428c-.337-.048-.53.048-.578.428Zm-3.18-33.292v-4.994c0-3.71-1.589-6.182-4.575-6.182-1.59 0-2.6 1.093-2.697 2.187h-.048c-.145-.428-.723-.903-1.349-1.427-1.156-.903-1.926-1.569-1.926-2.14 0-.095-.097-.19-.193-.237l-2.071-.286c-.097 0-.193 0-.241.095a.36.36 0 0 0-.096.238v1.046c0 1.713.674 2.283 2.793 3.948 1.734 1.284 2.264 1.76 2.264 2.568v.57l-4.672-.808c-.096 0-.193 0-.24.048-.097.047-.097.143-.097.238v2.9c0 .143.096.286.24.286l12.62 2.236c.096 0 .193 0 .24-.048 0-.048.049-.143.049-.238Zm-5.779-4.138v-1.807c0-1.141.385-1.665 1.156-1.665 1.3 0 1.975.81 1.975 2.379v1.712l-3.13-.619Zm11.897-4.565C31.933 92.075 29.332 114 29.332 114a.544.544 0 0 0 .337.619l.723.237 1.204.38c.096.048.144 0 .24-.047.049-.047.097-.095.145-.19.385-2.711 2.986-22.734 2.65-37.287-.338-13.697-3.083-25.207-3.902-28.298-.048-.238-.241-.428-.53-.476l-1.782-.333c-.097 0-.193 0-.241.096-.048.047-.096.142-.048.237.578 2.474 1.156 5.945 1.734 10.511l-17.243-3.044c-.29-.095-.627-.095-.627.476v2.949c0 .19.049.428.53.523l16.665 2.853c.049 0 .916.19 1.156 1.142.145 1.236.241 3.377.386 4.66l-18.11-3.186c-.627-.095-.578.19-.578.428v3.092c0 .237.048.618.626.713l17.387 2.996s.916.19 1.108 1.142c.048 1.522.145 2.473.193 3.995Zm-2.457 38.38-.192 1.284c-.048.333-.097.619.433.761l1.493.429c.482.095.578-.048.675-.476l.144-1.19c.048-.237.097-.617-.433-.76l-1.542-.428c-.289-.143-.481-.048-.578.38Zm-6.743 4.994c2.168 0 3.42-1.474 3.42-3.995 0-4.185-3.66-7.514-8.622-7.514-3.13 0-5.298 1.712-5.298 4.994 0 2.568 1.012 4.232 1.927 5.231l2.36-1.38c-.722-.808-1.397-1.95-1.397-3.328 0-1.427.915-1.998 2.408-2.045.482 4.375 1.975 8.037 5.202 8.037Zm-2.938-7.8c1.927.476 3.66 1.57 3.66 3.234 0 .809-.336 1.237-1.107 1.237-1.397-.048-2.312-1.855-2.553-4.47Zm6.406 18.12c0-2.282-1.59-3.471-3.468-4.565v-.048c.482.143.915.238 1.397.333.434.095.867 0 1.204-.285.337-.285.53-.666.53-1.094v-1.665l-19.17-3.471v1.95c0 .856.626 1.617 1.493 1.76l4.287.76c-.096.286-.193.856-.193 1.807 0 4.519 3.71 7.8 9.44 7.8 2.698.095 4.48-1.236 4.48-3.281Zm-11.319-4.422c0-.761.097-1.142.145-1.332l.722.143c4.865.998 7.321 2.663 7.321 4.232 0 .809-.77 1.19-1.974 1.19-3.854-.096-6.214-1.95-6.214-4.233Zm11.32 59.022c0-4.851-3.902-8.228-9.586-8.228-2.697 0-4.335 1.379-4.335 3.377 0 2.14 1.59 3.424 3.517 4.423v.047c-.578-.142-1.3-.238-1.975-.333a1.025 1.025 0 0 0-.867.286 1.01 1.01 0 0 0-.386.808v2.236c.964.046 3.131.19 6.792.808l6.02 1.094c.29-.571.82-2.14.82-4.518Zm-3.565.618c-4.961-.904-7.321-2.617-7.321-4.043 0-.808.626-1.19 1.926-1.19 3.71 0 6.31 1.95 6.31 4.092 0 .523-.096.998-.144 1.236l-.771-.095Zm-4.817-13.412c.771-.38 1.301-.761 1.638-1.141l6.358 5.754v-3.138c0-.525-.24-1.048-.674-1.428l-4.72-4.043v-.713l4.334.761c.241.047.53 0 .723-.19a.903.903 0 0 0 .337-.666v-2.52l-13.246-2.284v2.521c0 .57.434 1.047.964 1.142l4.48.809v.38c0 .76-.82 1.237-2.602 2.044-2.07.952-2.842 1.428-2.842 3.093v1.379l2.65.474v-.285c0-.618.818-1.14 2.6-1.95Zm7.177-14.173c-3.371-.523-5.587-2.235-5.587-3.9 0-.857.626-1.142 2.071-.904l2.601.428c.433.047.867-.048 1.204-.333.337-.285.53-.666.53-1.094v-1.76l-4.48-.808a10.435 10.435 0 0 0-1.637-.143c-2.216 0-3.42 1.046-3.42 2.901 0 2.332 1.541 3.854 3.227 4.805v.047c-2.023-.38-5.009-.903-6.887-1.093v3.375c.963.048 3.13.286 6.791.904l6.454 1.142v-3.471l-.867-.096Zm1.204-15.6c0-4.232-3.805-7.42-8.38-7.42-3.035 0-5.54 1.856-5.54 5.232 0 4.328 3.613 7.325 8.381 7.325 3.131.048 5.54-1.855 5.54-5.137Zm-11.222-1.855c0-1.331 1.156-1.997 2.89-1.997 2.456 0 5.587 1.38 5.587 3.567 0 1.332-1.012 1.997-2.842 1.997-2.408 0-5.635-1.236-5.635-3.567Z" fill="#E61801"/></g></svg>